<svg width="103" height="46" viewBox="0 0 103 46" fill="none" xmlns="http://www.w3.org/2000/svg">
<g clip-path="url(#clip0)">
<path d="M20.839 44.388C20.3419 44.8863 19.748 45.2774 19.0939 45.5373C18.4398 45.7972 17.7394 45.9204 17.0359 45.8992H14.3611C12.4614 45.9434 10.5725 45.6015 8.80879 44.8942C7.0451 44.1868 5.44337 43.1288 4.10063 41.7842C2.7579 40.4396 1.70212 38.8363 0.997253 37.0717C0.292391 35.307 -0.0468781 33.4176 4.59142e-07 31.5179V5.29408C-0.0268836 4.59163 0.0916625 3.89121 0.348204 3.23673C0.604746 2.58225 0.993749 1.98784 1.49082 1.49077C1.98789 0.993698 2.5823 0.604694 3.23678 0.348153C3.89126 0.091611 4.59168 -0.026935 5.29413 -5.09792e-05C6.00187 -0.0188997 6.70614 0.105217 7.3648 0.364873C8.02346 0.624528 8.62297 1.01439 9.12747 1.51112C9.62818 2.00642 10.0209 2.60002 10.281 3.25454C10.5411 3.90907 10.6628 4.61034 10.6386 5.31423V31.5179C10.629 32.0081 10.7185 32.4951 10.9017 32.9499C11.0849 33.4046 11.358 33.8177 11.7046 34.1643C12.0513 34.511 12.4644 34.7841 12.9191 34.9673C13.3739 35.1505 13.8609 35.2399 14.3511 35.2303H17.0258C17.7297 35.2061 18.431 35.3279 19.0855 35.588C19.7401 35.848 20.3336 36.2408 20.829 36.7415C21.3259 37.2458 21.7159 37.8453 21.9756 38.504C22.2353 39.1627 22.3593 39.8671 22.3401 40.5748C22.364 41.2793 22.2431 41.9812 21.9849 42.6371C21.7267 43.293 21.3367 43.8889 20.839 44.388Z" fill="#23BAC2"/>
<path d="M38.0059 46C35.7942 46.0363 33.5978 45.6266 31.5478 44.7953C29.4979 43.9641 27.6365 42.7283 26.0747 41.1618C24.5129 39.5952 23.2827 37.7301 22.4576 35.6777C21.6325 33.6253 21.2293 31.4276 21.2723 29.216C21.2723 24.4709 22.8741 20.4949 26.0778 17.2878C29.2815 14.0808 33.2575 12.4789 38.0059 12.4823C40.2184 12.438 42.4172 12.8401 44.4708 13.6646C46.5244 14.4891 48.3907 15.7191 49.9583 17.281C51.5259 18.843 52.7626 20.7049 53.5945 22.7555C54.4264 24.8061 54.8364 27.0034 54.8001 29.216C54.8362 31.4309 54.4264 33.6305 53.5951 35.6838C52.7638 37.7371 51.5279 39.6022 49.961 41.1682C48.3942 42.7341 46.5283 43.9688 44.4745 44.7989C42.4207 45.629 40.2209 46.0375 38.0059 46ZM38.0059 23.1209C37.2045 23.1156 36.41 23.2696 35.6687 23.5742C34.9273 23.8787 34.2539 24.3276 33.6877 24.8948C33.1214 25.462 32.6736 26.1361 32.3703 26.8779C32.067 27.6198 31.9143 28.4146 31.921 29.216C31.9068 30.0227 32.0556 30.824 32.3586 31.5719C32.6615 32.3197 33.1123 32.9987 33.684 33.5682C34.242 34.1487 34.9139 34.6077 35.6576 34.9163C36.4014 35.2249 37.2009 35.3764 38.0059 35.3614C38.8139 35.3647 39.6145 35.2081 40.3616 34.9004C41.1087 34.5928 41.7875 34.1402 42.3589 33.5689C42.9302 32.9976 43.3827 32.3188 43.6904 31.5717C43.998 30.8246 44.1547 30.024 44.1514 29.216C44.1664 28.4109 44.0148 27.6114 43.7063 26.8677C43.3977 26.1239 42.9387 25.452 42.3581 24.894C41.7895 24.3206 41.1109 23.8679 40.363 23.5632C39.6152 23.2585 38.8134 23.1081 38.0059 23.1209Z" fill="#FED740"/>
<path d="M72.4455 45.879C70.2401 45.9074 68.0514 45.494 66.0083 44.6631C63.9653 43.8323 62.1092 42.6007 60.5497 41.0412C58.9901 39.4816 57.7586 37.6256 56.9277 35.5825C56.0968 33.5395 55.6834 31.3507 55.7118 29.1453C55.6585 26.9302 56.0572 24.7274 56.8834 22.6714C57.7096 20.6154 58.9461 18.7493 60.5173 17.1869C63.721 13.9631 67.6971 12.3512 72.4455 12.3512C73.1543 12.3303 73.86 12.4545 74.5191 12.7162C75.1782 12.9779 75.7768 13.3716 76.2783 13.873C76.7797 14.3744 77.1734 14.9731 77.4351 15.6322C77.6968 16.2913 77.821 16.9969 77.8001 17.7058C77.8243 18.4097 77.7025 19.1109 77.4424 19.7655C77.1824 20.42 76.7896 21.0136 76.2889 21.5089C75.7844 22.0056 75.1849 22.3955 74.5262 22.6551C73.8676 22.9148 73.1633 23.0389 72.4556 23.0201C71.6505 23.005 70.851 23.1566 70.1073 23.4652C69.3635 23.7738 68.6916 24.2327 68.1336 24.8133C67.561 25.3821 67.1096 26.0609 66.8066 26.8089C66.5036 27.5569 66.3553 28.3586 66.3706 29.1655C66.3652 29.9661 66.519 30.7597 66.8229 31.5004C67.1268 32.2411 67.5748 32.914 68.1409 33.4802C68.707 34.0463 69.3799 34.4943 70.1206 34.7982C70.8613 35.1021 71.655 35.2558 72.4556 35.2505C73.2616 35.2651 74.0623 35.1165 74.8094 34.8135C75.5565 34.5105 76.2346 34.0594 76.8027 33.4874C77.3838 32.9264 77.8419 32.2507 78.148 31.5032C78.4541 30.7557 78.6015 29.9528 78.5808 29.1453V5.29404C78.5678 4.59437 78.6962 3.89927 78.9583 3.2504C79.2203 2.60154 79.6107 2.01227 80.106 1.51791C80.6013 1.02355 81.1913 0.634284 81.8407 0.373442C82.4901 0.112599 83.1854 -0.0144485 83.885 -8.72158e-05C84.5928 -0.0189359 85.2971 0.105181 85.9557 0.364836C86.6144 0.624492 87.2139 1.01435 87.7184 1.51108C88.2191 2.00639 88.6119 2.59999 88.8719 3.25451C89.132 3.90903 89.2538 4.61031 89.2295 5.31419V29.1453C89.2499 31.3536 88.8289 33.5437 87.9913 35.587C87.1538 37.6304 85.9165 39.4859 84.3522 41.0446C82.7878 42.6033 80.9279 43.8339 78.8815 44.664C76.8352 45.4942 74.6436 45.9073 72.4354 45.879H72.4455Z" fill="#F6933D"/>
<path d="M100.926 44.388C100.422 44.8848 99.822 45.2746 99.1633 45.5343C98.5047 45.7939 97.8004 45.9181 97.0927 45.8992C96.3902 45.9261 95.6898 45.8075 95.0353 45.551C94.3808 45.2945 93.7864 44.9055 93.2893 44.4084C92.7923 43.9113 92.4033 43.3169 92.1467 42.6624C91.8902 42.008 91.7716 41.3075 91.7985 40.6051V17.7663C91.7716 17.0638 91.8902 16.3634 92.1467 15.7089C92.4033 15.0544 92.7923 14.46 93.2893 13.963C93.7864 13.4659 94.3808 13.0769 95.0353 12.8203C95.6898 12.5638 96.3902 12.4453 97.0927 12.4721C97.8017 12.4446 98.509 12.5597 99.1726 12.8106C99.8363 13.0615 100.443 13.4432 100.956 13.9329C101.46 14.4327 101.854 15.0313 102.114 15.6911C102.374 16.351 102.494 17.0575 102.467 17.7663V40.5849C102.488 41.291 102.361 41.9936 102.096 42.6483C101.831 43.3029 101.432 43.8953 100.926 44.388Z" fill="#F86166"/>
<path d="M97.1229 10.6487C100.063 10.6487 102.447 8.26491 102.447 5.32435C102.447 2.38379 100.063 0 97.1229 0C94.1824 0 91.7986 2.38379 91.7986 5.32435C91.7986 8.26491 94.1824 10.6487 97.1229 10.6487Z" fill="#FED740"/>
</g>
<defs>
<clipPath id="clip0">
<rect width="102.447" height="46" fill="white"/>
</clipPath>
</defs>
</svg>
